<mxfile host="app.diagrams.net" agent="Mozilla/5.0 (Windows NT 10.0; Win64; x64) AppleWebKit/537.36 (KHTML, like Gecko) Chrome/134.0.0.0 Safari/537.36" version="26.1.1">
  <diagram name="Page-1" id="0utltd2LSvBFcz6xtyCl">
    <mxGraphModel dx="1437" dy="1389" grid="1" gridSize="10" guides="1" tooltips="1" connect="1" arrows="1" fold="1" page="1" pageScale="1" pageWidth="850" pageHeight="1100" math="0" shadow="0">
      <root>
        <mxCell id="0" />
        <mxCell id="1" parent="0" />
        <mxCell id="AKdRP_uY8byEcLo2qlcU-4" value="" style="verticalLabelPosition=bottom;verticalAlign=top;html=1;shape=mxgraph.basic.rect;fillColor2=none;strokeWidth=1;size=0;indent=0;" vertex="1" parent="1">
          <mxGeometry x="40" y="50" width="170" height="260" as="geometry" />
        </mxCell>
        <mxCell id="AKdRP_uY8byEcLo2qlcU-5" value="" style="verticalLabelPosition=bottom;verticalAlign=top;html=1;shape=mxgraph.basic.rect;fillColor2=none;strokeWidth=1;size=20;indent=5;" vertex="1" parent="1">
          <mxGeometry x="60" y="140" width="125" height="20" as="geometry" />
        </mxCell>
        <mxCell id="AKdRP_uY8byEcLo2qlcU-6" value="&lt;font style=&quot;font-size: 10px; color: rgb(135, 135, 135);&quot;&gt;Digite seu email&lt;/font&gt;" style="text;html=1;align=center;verticalAlign=middle;whiteSpace=wrap;rounded=0;opacity=50;" vertex="1" parent="1">
          <mxGeometry x="60" y="137.5" width="90" height="25" as="geometry" />
        </mxCell>
        <mxCell id="AKdRP_uY8byEcLo2qlcU-8" value="" style="verticalLabelPosition=bottom;verticalAlign=top;html=1;shape=mxgraph.basic.rect;fillColor2=none;strokeWidth=1;size=20;indent=5;" vertex="1" parent="1">
          <mxGeometry x="60" y="170" width="125" height="20" as="geometry" />
        </mxCell>
        <mxCell id="AKdRP_uY8byEcLo2qlcU-9" value="&lt;font style=&quot;font-size: 10px; color: rgb(135, 135, 135);&quot;&gt;Digite sua senha&lt;/font&gt;" style="text;html=1;align=center;verticalAlign=middle;whiteSpace=wrap;rounded=0;opacity=50;" vertex="1" parent="1">
          <mxGeometry x="60" y="167.5" width="90" height="25" as="geometry" />
        </mxCell>
        <mxCell id="AKdRP_uY8byEcLo2qlcU-10" value="&lt;font style=&quot;font-size: 6px;&quot;&gt;Esqueceu sua senha?&lt;/font&gt;" style="text;html=1;align=center;verticalAlign=middle;whiteSpace=wrap;rounded=0;" vertex="1" parent="1">
          <mxGeometry x="115" y="192.5" width="70" height="20" as="geometry" />
        </mxCell>
        <mxCell id="AKdRP_uY8byEcLo2qlcU-11" value="OLÁ, seja bem-indo(a) ao site da (empresa de construção de móveis!" style="text;html=1;align=center;verticalAlign=middle;whiteSpace=wrap;rounded=0;" vertex="1" parent="1">
          <mxGeometry x="55" y="50" width="140" height="80" as="geometry" />
        </mxCell>
        <mxCell id="AKdRP_uY8byEcLo2qlcU-12" value="" style="verticalLabelPosition=bottom;verticalAlign=top;html=1;shape=mxgraph.basic.rect;fillColor2=none;strokeWidth=1;size=0;indent=0;" vertex="1" parent="1">
          <mxGeometry x="-250" y="50" width="170" height="260" as="geometry" />
        </mxCell>
        <mxCell id="AKdRP_uY8byEcLo2qlcU-13" value="Logo da empresa (Fade-in e Fade-out)" style="text;html=1;align=center;verticalAlign=middle;whiteSpace=wrap;rounded=0;" vertex="1" parent="1">
          <mxGeometry x="-210" y="165" width="90" height="30" as="geometry" />
        </mxCell>
        <mxCell id="AKdRP_uY8byEcLo2qlcU-14" value="" style="shape=singleArrow;whiteSpace=wrap;html=1;" vertex="1" parent="1">
          <mxGeometry x="-70" y="150" width="100" height="60" as="geometry" />
        </mxCell>
        <mxCell id="AKdRP_uY8byEcLo2qlcU-15" value="" style="shape=singleArrow;direction=north;whiteSpace=wrap;html=1;" vertex="1" parent="1">
          <mxGeometry x="95" y="-60" width="60" height="100" as="geometry" />
        </mxCell>
        <mxCell id="AKdRP_uY8byEcLo2qlcU-16" value="&lt;font style=&quot;color: rgb(51, 51, 255);&quot;&gt;SEM&amp;nbsp;&lt;/font&gt;&lt;div&gt;&lt;font style=&quot;color: rgb(51, 51, 255);&quot;&gt;INTERNET&lt;/font&gt;&lt;/div&gt;" style="text;html=1;align=center;verticalAlign=middle;resizable=0;points=[];autosize=1;strokeColor=none;fillColor=none;" vertex="1" parent="1">
          <mxGeometry x="85" y="-100" width="80" height="40" as="geometry" />
        </mxCell>
        <mxCell id="AKdRP_uY8byEcLo2qlcU-17" value="" style="verticalLabelPosition=bottom;verticalAlign=top;html=1;shape=mxgraph.basic.rect;fillColor2=none;strokeWidth=1;size=0;indent=0;" vertex="1" parent="1">
          <mxGeometry x="37.5" y="-370" width="170" height="260" as="geometry" />
        </mxCell>
        <mxCell id="AKdRP_uY8byEcLo2qlcU-19" value="" style="ellipse;whiteSpace=wrap;html=1;aspect=fixed;" vertex="1" parent="1">
          <mxGeometry x="112.5" y="-250" width="20" height="20" as="geometry" />
        </mxCell>
        <mxCell id="AKdRP_uY8byEcLo2qlcU-24" value="" style="verticalLabelPosition=bottom;verticalAlign=top;html=1;shape=mxgraph.basic.wave2;dy=0.37;" vertex="1" parent="1">
          <mxGeometry x="111.88" y="-260" width="21.25" height="10" as="geometry" />
        </mxCell>
        <mxCell id="AKdRP_uY8byEcLo2qlcU-25" value="" style="verticalLabelPosition=bottom;verticalAlign=top;html=1;shape=mxgraph.basic.wave2;dy=0.37;" vertex="1" parent="1">
          <mxGeometry x="103.13" y="-270" width="38.75" height="10" as="geometry" />
        </mxCell>
        <mxCell id="AKdRP_uY8byEcLo2qlcU-26" value="" style="verticalLabelPosition=bottom;verticalAlign=top;html=1;shape=mxgraph.basic.wave2;dy=0.43;rotation=0;" vertex="1" parent="1">
          <mxGeometry x="95" y="-280" width="56.88" height="10" as="geometry" />
        </mxCell>
        <mxCell id="AKdRP_uY8byEcLo2qlcU-31" value="" style="verticalLabelPosition=bottom;verticalAlign=top;html=1;shape=mxgraph.basic.wave2;dy=0.43;rotation=0;" vertex="1" parent="1">
          <mxGeometry x="84.06" y="-290" width="76.88" height="10" as="geometry" />
        </mxCell>
        <mxCell id="AKdRP_uY8byEcLo2qlcU-32" value="&lt;span style=&quot;white-space: pre;&quot;&gt;&#x9;&lt;/span&gt;Ops..... Parece que você está sem internet, receonecte-se com a rede para continuar o processo" style="text;html=1;align=center;verticalAlign=middle;whiteSpace=wrap;rounded=0;" vertex="1" parent="1">
          <mxGeometry x="52.5" y="-230" width="140" height="80" as="geometry" />
        </mxCell>
        <mxCell id="AKdRP_uY8byEcLo2qlcU-33" value="" style="shape=tapeData;whiteSpace=wrap;html=1;perimeter=ellipsePerimeter;" vertex="1" parent="1">
          <mxGeometry x="60" y="-230" width="20" height="20" as="geometry" />
        </mxCell>
        <mxCell id="AKdRP_uY8byEcLo2qlcU-34" value="" style="shape=tapeData;whiteSpace=wrap;html=1;perimeter=ellipsePerimeter;strokeColor=#FFFFFF;" vertex="1" parent="1">
          <mxGeometry x="52.5" y="-240" width="20" height="20" as="geometry" />
        </mxCell>
        <mxCell id="AKdRP_uY8byEcLo2qlcU-35" value="" style="rounded=0;whiteSpace=wrap;html=1;fillColor=#000000;" vertex="1" parent="1">
          <mxGeometry x="60" y="230" width="130" height="20" as="geometry" />
        </mxCell>
        <mxCell id="AKdRP_uY8byEcLo2qlcU-36" value="&lt;font style=&quot;color: rgb(255, 255, 255);&quot;&gt;Entrar&lt;/font&gt;" style="text;html=1;align=center;verticalAlign=middle;resizable=0;points=[];autosize=1;strokeColor=none;fillColor=none;" vertex="1" parent="1">
          <mxGeometry x="92.5" y="225" width="60" height="30" as="geometry" />
        </mxCell>
        <mxCell id="AKdRP_uY8byEcLo2qlcU-37" value="&lt;font style=&quot;color: rgb(102, 102, 255);&quot;&gt;Criar conta&lt;/font&gt;" style="text;html=1;align=center;verticalAlign=middle;whiteSpace=wrap;rounded=0;" vertex="1" parent="1">
          <mxGeometry x="53.44" y="240" width="140" height="60" as="geometry" />
        </mxCell>
        <mxCell id="AKdRP_uY8byEcLo2qlcU-38" value="" style="shape=singleArrow;direction=south;whiteSpace=wrap;html=1;" vertex="1" parent="1">
          <mxGeometry x="93.44" y="320" width="60" height="100" as="geometry" />
        </mxCell>
        <mxCell id="AKdRP_uY8byEcLo2qlcU-39" value="" style="verticalLabelPosition=bottom;verticalAlign=top;html=1;shape=mxgraph.basic.rect;fillColor2=none;strokeWidth=1;size=0;indent=0;" vertex="1" parent="1">
          <mxGeometry x="37.51" y="450" width="170" height="260" as="geometry" />
        </mxCell>
        <mxCell id="AKdRP_uY8byEcLo2qlcU-40" value="&lt;font style=&quot;color: rgb(0, 255, 0);&quot;&gt;CRIANDO CONTA&lt;/font&gt;" style="text;html=1;align=center;verticalAlign=middle;resizable=0;points=[];autosize=1;strokeColor=none;fillColor=none;" vertex="1" parent="1">
          <mxGeometry x="62.5" y="420" width="120" height="30" as="geometry" />
        </mxCell>
        <mxCell id="AKdRP_uY8byEcLo2qlcU-41" value="" style="verticalLabelPosition=bottom;verticalAlign=top;html=1;shape=mxgraph.basic.rect;fillColor2=none;strokeWidth=1;size=20;indent=5;" vertex="1" parent="1">
          <mxGeometry x="60" y="510" width="125" height="20" as="geometry" />
        </mxCell>
        <mxCell id="AKdRP_uY8byEcLo2qlcU-42" value="Queremos conhece-lo(a)!" style="text;html=1;align=center;verticalAlign=middle;whiteSpace=wrap;rounded=0;" vertex="1" parent="1">
          <mxGeometry x="48.44" y="430" width="150" height="80" as="geometry" />
        </mxCell>
        <mxCell id="AKdRP_uY8byEcLo2qlcU-43" value="Seu nome:" style="text;html=1;align=center;verticalAlign=middle;whiteSpace=wrap;rounded=0;" vertex="1" parent="1">
          <mxGeometry x="62.5" y="460" width="65" height="80" as="geometry" />
        </mxCell>
        <mxCell id="AKdRP_uY8byEcLo2qlcU-44" value="Seu sobrenome:" style="text;html=1;align=center;verticalAlign=middle;whiteSpace=wrap;rounded=0;" vertex="1" parent="1">
          <mxGeometry x="58.44" y="520" width="102.5" height="80" as="geometry" />
        </mxCell>
        <mxCell id="AKdRP_uY8byEcLo2qlcU-45" value="" style="verticalLabelPosition=bottom;verticalAlign=top;html=1;shape=mxgraph.basic.rect;fillColor2=none;strokeWidth=1;size=20;indent=5;" vertex="1" parent="1">
          <mxGeometry x="58.44" y="570" width="125" height="20" as="geometry" />
        </mxCell>
        <mxCell id="AKdRP_uY8byEcLo2qlcU-46" value="Seu email:" style="text;html=1;align=center;verticalAlign=middle;whiteSpace=wrap;rounded=0;" vertex="1" parent="1">
          <mxGeometry x="58.44" y="580" width="65" height="80" as="geometry" />
        </mxCell>
        <mxCell id="AKdRP_uY8byEcLo2qlcU-47" value="" style="verticalLabelPosition=bottom;verticalAlign=top;html=1;shape=mxgraph.basic.rect;fillColor2=none;strokeWidth=1;size=20;indent=5;" vertex="1" parent="1">
          <mxGeometry x="58.44" y="630" width="125" height="20" as="geometry" />
        </mxCell>
        <mxCell id="AKdRP_uY8byEcLo2qlcU-48" value="Sua senha:" style="text;html=1;align=center;verticalAlign=middle;whiteSpace=wrap;rounded=0;" vertex="1" parent="1">
          <mxGeometry x="58.44" y="640" width="65" height="80" as="geometry" />
        </mxCell>
        <mxCell id="AKdRP_uY8byEcLo2qlcU-49" value="" style="verticalLabelPosition=bottom;verticalAlign=top;html=1;shape=mxgraph.basic.rect;fillColor2=none;strokeWidth=1;size=20;indent=5;" vertex="1" parent="1">
          <mxGeometry x="58.44" y="690" width="125" height="20" as="geometry" />
        </mxCell>
        <mxCell id="AKdRP_uY8byEcLo2qlcU-50" value="" style="verticalLabelPosition=bottom;verticalAlign=top;html=1;shape=mxgraph.basic.rect;fillColor2=none;strokeWidth=1;size=0;indent=0;" vertex="1" parent="1">
          <mxGeometry x="35" y="850" width="170" height="260" as="geometry" />
        </mxCell>
        <mxCell id="AKdRP_uY8byEcLo2qlcU-51" value="" style="shape=singleArrow;direction=south;whiteSpace=wrap;html=1;" vertex="1" parent="1">
          <mxGeometry x="90" y="720" width="60" height="100" as="geometry" />
        </mxCell>
        <mxCell id="AKdRP_uY8byEcLo2qlcU-52" value="&lt;font style=&quot;color: light-dark(rgb(255, 51, 51), rgb(168, 168, 255));&quot;&gt;SROLL&lt;/font&gt;" style="text;html=1;align=center;verticalAlign=middle;resizable=0;points=[];autosize=1;strokeColor=none;fillColor=none;" vertex="1" parent="1">
          <mxGeometry x="90.94" y="820" width="60" height="30" as="geometry" />
        </mxCell>
        <mxCell id="AKdRP_uY8byEcLo2qlcU-53" value="Sua senha:" style="text;html=1;align=center;verticalAlign=middle;whiteSpace=wrap;rounded=0;" vertex="1" parent="1">
          <mxGeometry x="60" y="880" width="65" height="80" as="geometry" />
        </mxCell>
        <mxCell id="AKdRP_uY8byEcLo2qlcU-54" value="" style="verticalLabelPosition=bottom;verticalAlign=top;html=1;shape=mxgraph.basic.rect;fillColor2=none;strokeWidth=1;size=20;indent=5;" vertex="1" parent="1">
          <mxGeometry x="57.5" y="930" width="125" height="20" as="geometry" />
        </mxCell>
        <mxCell id="AKdRP_uY8byEcLo2qlcU-55" value="Seu email:" style="text;html=1;align=center;verticalAlign=middle;whiteSpace=wrap;rounded=0;" vertex="1" parent="1">
          <mxGeometry x="60" y="820" width="65" height="80" as="geometry" />
        </mxCell>
        <mxCell id="AKdRP_uY8byEcLo2qlcU-56" value="" style="verticalLabelPosition=bottom;verticalAlign=top;html=1;shape=mxgraph.basic.rect;fillColor2=none;strokeWidth=1;size=20;indent=5;" vertex="1" parent="1">
          <mxGeometry x="58.44" y="870" width="125" height="20" as="geometry" />
        </mxCell>
        <mxCell id="AKdRP_uY8byEcLo2qlcU-57" value="Confirme sua senha:" style="text;html=1;align=center;verticalAlign=middle;whiteSpace=wrap;rounded=0;" vertex="1" parent="1">
          <mxGeometry x="60" y="950" width="117.5" height="80" as="geometry" />
        </mxCell>
        <mxCell id="AKdRP_uY8byEcLo2qlcU-58" value="" style="verticalLabelPosition=bottom;verticalAlign=top;html=1;shape=mxgraph.basic.rect;fillColor2=none;strokeWidth=1;size=20;indent=5;" vertex="1" parent="1">
          <mxGeometry x="58.44" y="1000" width="125" height="20" as="geometry" />
        </mxCell>
        <mxCell id="AKdRP_uY8byEcLo2qlcU-59" value="" style="rounded=0;whiteSpace=wrap;html=1;fillColor=#000000;" vertex="1" parent="1">
          <mxGeometry x="55.94" y="1050" width="130" height="20" as="geometry" />
        </mxCell>
        <mxCell id="AKdRP_uY8byEcLo2qlcU-60" value="&lt;font style=&quot;color: rgb(255, 255, 255);&quot;&gt;Criar Conta&lt;/font&gt;" style="text;html=1;align=center;verticalAlign=middle;resizable=0;points=[];autosize=1;strokeColor=none;fillColor=none;" vertex="1" parent="1">
          <mxGeometry x="75.94" y="1045" width="90" height="30" as="geometry" />
        </mxCell>
      </root>
    </mxGraphModel>
  </diagram>
</mxfile>
